PathFileType	4	(X/Y/Z)	/Users/gattia/Dropbox/phd_data/bike_study/processing_scripts/../mocap_collections/p017/static_002_dig-bike_study_lower_sept.17.2019_static_func_knee_and_ankle/marker_data.trc
DataRate	CameraRate	NumFrames	NumMarkers	Units	OrigDataRate	OrigDataStartFrame	OrigNumFrames
112.5	112.5	4	107	mm	112.5	43	339
Frame#	Time	Head_Front			Head_R			Head_L			Head_back			Head_top			Arm_R_1			Arm_R_2			Arm_R_3			Arm_R_4			Elbow_R_Lat			Elbow_R_Med			Forearm_R_1			Forearm_R_2			Forearm_R_3			Forearm_R_4			Rad_styl_R			Ul_styl_R			Dig_R_1			Dig_R_3			Dig_R_5			Arm_L_1			Arm_L_2			Arm_L_3			Arm_L_4			Elbow_L_Lat			Elbow_L_Med			Forearm_L_1			Forearm_L_2			Forearm_L_3			Forearm_L_4			Rad_styl_L			Ul_styl_L			Dig_L_1			Dig_L_3			Dig_L_5			xiphoid			sternal_notch			Acr_R			Acr_L			C7			T8			ASIS_R			ASIS_L			PSIS_R			PSIS_L			GT_R			Thigh_R_1			Thigh_R_2			Thigh_R_3			Thigh_R_4			Knee_R_L_Cond			Knee_R_M_Cond			GT_L			Thigh_L_1			Thigh_L_2			Thigh_L_3			Thigh_L_4			Knee_L_L_Cond			Knee_L_M_Cond			Tib_Tib_R			Shank_R_1			Shank_R_2			Shank_R_3			Shank_R_4			Ankle_R_L_Mal			Ankle_R_M_Mal			Tib_Tub_L			Shank_L_1			Shank_L_2			Shank_L_3			Shank_L_4			Ankle_L_L_Mal			Ankle_L_M_Mal			Foot_R_MH_1_Top			Foot_R_MH_5_Top			Foot_R_Calc			Foot_R_Center			Foot_L_MH_1_Top			Foot_L_MH_5_Top			Foot_L_Calc			Foot_L_Center			right_hjc			left_hjc			mid_hjc			mid_pelvis			mid_asis			mid_psis			right_kjc			left_kjc			right_ajc			left_ajc			right_met_1_floor			left_met_1_floor			right_met_5_floor			left_met_5_floor			right_calc_floor			left_calc_floor			right_mid_met_floor			left_mid_met_floor			right_ajc_floor			left_ajc_floor			right_sjc			left_sjc			right_ejc			left_ejc			right_wjc			left_wjc			
		X1	Y1	Z1	X2	Y2	Z2	X3	Y3	Z3	X4	Y4	Z4	X5	Y5	Z5	X6	Y6	Z6	X7	Y7	Z7	X8	Y8	Z8	X9	Y9	Z9	X10	Y10	Z10	X11	Y11	Z11	X12	Y12	Z12	X13	Y13	Z13	X14	Y14	Z14	X15	Y15	Z15	X16	Y16	Z16	X17	Y17	Z17	X18	Y18	Z18	X19	Y19	Z19	X20	Y20	Z20	X21	Y21	Z21	X22	Y22	Z22	X23	Y23	Z23	X24	Y24	Z24	X25	Y25	Z25	X26	Y26	Z26	X27	Y27	Z27	X28	Y28	Z28	X29	Y29	Z29	X30	Y30	Z30	X31	Y31	Z31	X32	Y32	Z32	X33	Y33	Z33	X34	Y34	Z34	X35	Y35	Z35	X36	Y36	Z36	X37	Y37	Z37	X38	Y38	Z38	X39	Y39	Z39	X40	Y40	Z40	X41	Y41	Z41	X42	Y42	Z42	X43	Y43	Z43	X44	Y44	Z44	X45	Y45	Z45	X46	Y46	Z46	X47	Y47	Z47	X48	Y48	Z48	X49	Y49	Z49	X50	Y50	Z50	X51	Y51	Z51	X52	Y52	Z52	X53	Y53	Z53	X54	Y54	Z54	X55	Y55	Z55	X56	Y56	Z56	X57	Y57	Z57	X58	Y58	Z58	X59	Y59	Z59	X60	Y60	Z60	X61	Y61	Z61	X62	Y62	Z62	X63	Y63	Z63	X64	Y64	Z64	X65	Y65	Z65	X66	Y66	Z66	X67	Y67	Z67	X68	Y68	Z68	X69	Y69	Z69	X70	Y70	Z70	X71	Y71	Z71	X72	Y72	Z72	X73	Y73	Z73	X74	Y74	Z74	X75	Y75	Z75	X76	Y76	Z76	X77	Y77	Z77	X78	Y78	Z78	X79	Y79	Z79	X80	Y80	Z80	X81	Y81	Z81	X82	Y82	Z82	X83	Y83	Z83	X84	Y84	Z84	X85	Y85	Z85	X86	Y86	Z86	X87	Y87	Z87	X88	Y88	Z88	X89	Y89	Z89	X90	Y90	Z90	X91	Y91	Z91	X92	Y92	Z92	X93	Y93	Z93	X94	Y94	Z94	X95	Y95	Z95	X96	Y96	Z96	X97	Y97	Z97	X98	Y98	Z98	X99	Y99	Z99	X100	Y100	Z100	X101	Y101	Z101	X102	Y102	Z102	X103	Y103	Z103	X104	Y104	Z104	X105	Y105	Z105	X106	Y106	Z106	X107	Y107	Z107	

43	  0.373333	345.675917	1788.737641	318.955540	157.186230	1756.366864	373.508414	240.305040	1755.917788	179.610102	106.266528	1693.396274	266.339369	217.706509	1857.606203	285.659480	109.014056	1328.209512	512.766877	115.938062	1350.890061	547.501552	114.841163	1327.588647	563.071414	107.784820	1303.976235	528.129506	106.661650	1237.550879	596.379157	180.084308	1211.070942	562.466469	107.908794	1140.442977	698.072443	144.047431	1115.913208	676.131354	148.393389	1101.780893	699.772905	112.032887	1125.587205	720.736876	163.295837	1128.073167	824.027267	129.604697	1065.336866	791.261851	178.008020	1127.304345	889.204928	114.583751	1060.614592	889.247171	124.199050	1025.093748	859.259533	189.570039	1340.014691	-37.741758	152.404275	1334.443758	-19.186631	150.055109	1310.177406	-32.143809	186.663915	1315.311887	-51.622908	144.314144	1229.076879	-61.092339	193.547074	1196.584916	 -7.430922	160.754513	1170.703897	-172.942441	170.688894	1129.880338	-147.857857	179.547587	1117.343275	-171.253895	169.371018	1157.867258	-196.378396	242.001540	1147.824578	-288.608665	210.575986	1080.529592	-260.689152	290.758202	1139.143726	-351.640063	225.056318	1078.275475	-376.198267	228.695988	1037.696126	-349.549846	316.262208	1295.493549	277.979640	277.086133	1491.504282	279.315818	159.884310	1534.394616	443.299795	200.026977	1527.807863	 77.167546	139.222860	1554.442058	274.966579	 94.755680	1362.695613	271.940792	279.338598	1032.428766	415.817011	292.976235	1024.855161	145.596277	100.001921	1066.798917	322.901433	104.358111	1072.273913	202.688853	205.937269	950.587119	464.221471	186.048768	779.236611	470.440013	228.674574	776.459478	475.177115	226.658614	746.052747	474.781207	183.921595	747.573409	470.625216	194.242219	521.966054	440.059996	230.387188	495.976647	349.462490	208.432100	923.310892	 88.887896	241.103735	783.947187	 84.330677	198.782594	779.782052	 85.967736	201.762320	748.641750	 85.621350	244.305566	752.488560	 83.782845	221.824893	512.018607	128.309199	240.874607	493.519925	224.666481	224.159817	447.622031	402.070424	105.697435	422.852676	441.806371	145.134514	413.511897	457.319761	137.549772	383.906078	458.478841	 97.813057	393.363276	443.331041	109.304302	126.718745	427.013055	146.687787	131.593474	347.397289	238.941334	441.839082	175.916641	157.926951	423.669873	110.633985	118.013295	430.765628	127.286795	111.471038	401.647662	125.705572	150.567933	394.312675	108.161851	116.759771	121.474203	143.945906	156.352936	124.409626	218.414623	276.165485	 57.399516	391.322999	215.759980	 51.440851	488.364309	 62.264951	 68.801539	357.657514	155.926013	 61.184379	460.648180	301.642374	 52.644651	164.194630	242.101975	 49.931711	 63.171005	 81.297777	 64.763856	209.157155	169.097203	 64.106392	 99.354274	219.763921	961.780699	366.911493	228.765497	956.781712	188.551233	224.264709	959.281206	277.731363	194.168716	1049.089189	271.750894	286.157417	1028.641963	280.706644	102.180016	1069.536415	262.795143	201.726357	510.291141	394.761243	209.282906	492.718651	176.487840	127.996045	129.156109	387.205172	136.556354	122.941915	181.180265	276.165485	  0.000000	391.322999	301.642374	  0.000000	164.194630	215.759980	  0.000000	488.364309	242.101975	  0.000000	 63.171005	 62.264951	  0.000000	357.657514	 81.297777	  0.000000	209.157155	245.962732	  0.000000	439.843654	271.872174	  0.000000	113.682817	127.996045	  0.000000	387.205172	136.556354	  0.000000	181.180265	159.884310	1465.394616	443.299795	200.026977	1458.807863	 77.167546	143.372979	1224.310910	579.422813	168.930609	1212.830897	-34.261630	146.450267	1096.705016	807.644559	226.288763	1114.177085	-274.648908
44	  0.382222	345.672821	1788.716791	318.954027	157.175159	1756.377024	373.505011	240.298636	1755.916538	179.607312	106.247245	1693.416445	266.334117	217.715729	1857.607049	285.657042	108.977007	1328.205174	512.752964	115.897155	1350.885134	547.488726	114.799452	1327.583085	563.057737	107.747094	1303.971762	528.115592	106.622796	1237.545065	596.364152	180.046444	1211.068512	562.453933	107.867104	1140.434264	698.054375	143.987761	1115.899853	676.091269	148.352296	1101.771929	699.755098	111.991087	1125.577968	720.718509	163.246164	1128.061516	824.010760	129.562537	1065.323801	791.240174	177.952039	1127.293363	889.189178	114.530745	1060.599471	889.222672	124.153343	1025.078096	859.237607	189.524372	1339.997766	-37.716332	152.351845	1334.429796	-19.178154	150.003161	1310.163986	-32.134892	186.607626	1315.299829	-51.619552	144.262761	1229.062128	-61.080549	193.500373	1196.573144	 -7.425324	160.691079	1170.686038	-172.931139	170.631451	1129.863765	-147.845940	179.488336	1117.325829	-171.243723	169.272382	1157.807145	-196.401076	241.930799	1147.807709	-288.604932	210.509580	1080.511583	-260.681107	290.681724	1139.127252	-351.639654	224.981042	1078.256181	-376.192298	228.622305	1037.677148	-349.543931	316.232108	1295.492961	277.979214	277.042648	1491.499153	279.309102	159.841918	1534.393454	443.292635	199.976414	1527.798937	 77.162383	139.185232	1554.441877	274.961238	 94.736959	1362.700296	271.952033	279.309203	1032.434095	415.823046	292.952902	1024.856941	145.599918	 99.975070	1066.795423	322.900849	104.332781	1072.271062	202.688641	205.910424	950.588600	464.224729	186.030193	779.237559	470.442231	228.656347	776.461959	475.181272	226.642056	746.054782	474.785296	183.904684	747.574329	470.627442	194.234884	521.967124	440.063565	230.382128	495.978959	349.466862	208.413124	923.309550	 88.891597	241.091518	783.946816	 84.334815	198.770002	779.780502	 85.970167	201.750806	748.640138	 85.623769	244.294722	752.488081	 83.786588	221.813741	512.017811	128.312879	240.862443	493.519286	224.668441	224.154774	447.623008	402.073918	105.692665	422.851800	441.807668	145.129841	413.511069	457.321352	137.544645	383.905207	458.479855	 97.808448	393.362330	443.331987	109.303906	126.718290	427.014774	146.687343	131.592808	347.398585	238.931461	441.838424	175.919048	157.919092	423.666427	110.636653	118.004462	430.761117	127.287215	111.463157	401.642291	125.704378	150.561471	394.309604	108.162679	116.763405	121.464990	143.954034	156.351193	124.407329	218.415731	276.165547	 57.399209	391.324411	215.761318	 51.439743	488.364631	 62.264977	 68.800644	357.658669	155.926320	 61.184308	460.649758	301.642354	 52.644345	164.196052	242.102757	 49.931270	 63.171999	 81.297503	 64.762669	209.157851	169.097591	 64.105542	 99.355019	219.738070	961.782433	366.916657	228.743647	956.781102	188.554817	224.240858	959.281768	277.735737	194.142489	1049.089380	271.753114	286.131053	1028.645518	280.711482	102.153926	1069.533242	262.794745	201.720173	510.292342	394.765213	209.271670	492.717355	176.490660	127.995624	129.155549	387.206679	136.557299	122.936159	181.184883	276.165547	  0.000000	391.324411	301.642354	  0.000000	164.196052	215.761318	  0.000000	488.364631	242.102757	  0.000000	 63.171999	 62.264977	  0.000000	357.658669	 81.297503	  0.000000	209.157851	245.963432	  0.000000	439.844521	271.872556	  0.000000	113.684025	127.995624	  0.000000	387.206679	136.557299	  0.000000	181.184883	159.841918	1465.393454	443.292635	199.976414	1458.798937	 77.162383	143.334620	1224.306788	579.409042	168.881567	1212.817636	-34.252937	146.404351	1096.692659	807.625467	226.220189	1114.159646	-274.643019
45	  0.391111	345.670295	1788.695142	318.952261	157.164571	1756.389460	373.501849	240.292062	1755.914293	179.604624	106.227112	1693.438314	266.330082	217.726324	1857.608243	285.653904	108.939640	1328.200533	512.741160	115.856034	1350.879999	547.477663	114.758087	1327.577264	563.046070	107.709260	1303.966989	528.103773	106.584663	1237.538734	596.350646	180.010307	1211.066053	562.443481	107.826505	1140.424725	698.037346	143.923671	1115.884668	676.045575	148.312973	1101.762768	699.739056	111.950574	1125.567859	720.701419	163.196873	1128.049686	823.996156	129.522182	1065.309998	791.219776	177.895681	1127.282003	889.175630	114.477720	1060.583424	889.199106	124.108901	1025.061898	859.216970	189.478851	1339.980707	-37.690050	152.300458	1334.414901	-19.166971	149.952615	1310.149509	-32.123374	186.552662	1315.287143	-51.614049	144.213355	1229.046342	-61.066195	193.457361	1196.561252	 -7.417383	160.632236	1170.667063	-172.913534	170.574885	1129.844607	-147.830255	179.430685	1117.306020	-171.229580	169.176896	1157.746318	-196.418339	241.860034	1147.786846	-288.598575	210.444348	1080.489547	-260.668687	290.604080	1139.106538	-351.637264	224.904915	1078.230304	-376.181838	228.550190	1037.652594	-349.531938	316.203645	1295.493593	277.979771	276.998993	1491.494802	279.304326	159.798279	1534.392182	443.286957	199.925556	1527.790175	 77.158842	139.146291	1554.441349	274.957514	 94.707657	1362.699466	271.957218	279.280995	1032.439005	415.828092	292.929034	1024.858585	145.602075	 99.948404	1066.792171	322.900990	104.306775	1072.268634	202.689224	205.884937	950.590003	464.227552	186.012077	779.238274	470.444250	228.638688	776.464183	475.185228	226.625675	746.056475	474.789240	183.888257	747.575140	470.629492	194.226678	521.967792	440.066341	230.376309	495.981163	349.470847	208.392072	923.308448	 88.895243	241.076315	783.946063	 84.339170	198.754353	779.779053	 85.972828	201.736201	748.638581	 85.626167	244.280654	752.487268	 83.790471	221.800599	512.016936	128.316272	240.848666	493.518647	224.670165	224.149037	447.623823	402.076910	105.687291	422.850846	441.808640	145.124609	413.510225	457.322627	137.538855	383.904163	458.480403	 97.803215	393.361217	443.332781	109.303253	126.717647	427.016298	146.686743	131.592267	347.399847	238.920050	441.837853	175.920924	157.909364	423.662949	110.639191	117.993849	430.756318	127.287808	111.454320	401.635427	125.702275	150.553410	394.306694	108.163292	116.766671	121.455593	143.962087	156.349286	124.405019	218.416639	276.165207	 57.398621	391.325729	215.762048	 51.438790	488.364761	 62.264512	 68.799701	357.659755	155.926381	 61.184007	460.651017	301.642152	 52.643815	164.197206	242.103460	 49.930675	 63.172843	 81.296776	 64.760524	209.158362	169.097768	 64.104580	 99.355786	219.712761	961.783853	366.921246	228.721203	956.780367	188.557499	224.216982	959.282110	277.739373	194.116302	1049.089599	271.755095	286.105015	1028.648795	280.715084	102.127589	1069.530402	262.795107	201.713201	510.293430	394.768594	209.258549	492.716152	176.493218	127.994998	129.154957	387.208073	136.557979	122.930306	181.189363	276.165207	  0.000000	391.325729	301.642152	  0.000000	164.197206	215.762048	  0.000000	488.364761	242.103460	  0.000000	 63.172843	 62.264512	  0.000000	357.659755	 81.296776	  0.000000	209.158362	245.963628	  0.000000	439.845245	271.872806	  0.000000	113.685025	127.994998	  0.000000	387.208073	136.557979	  0.000000	181.189363	159.798279	1465.392182	443.286957	199.925556	1458.790175	 77.158842	143.297485	1224.302394	579.397064	168.835358	1212.803797	-34.241789	146.359528	1096.679842	807.607966	226.152191	1114.138197	-274.633631
46	  0.400000	345.667925	1788.673295	318.950399	157.154555	1756.403909	373.499343	240.284835	1755.911363	179.602337	106.206046	1693.461838	266.327448	217.737808	1857.610018	285.650135	108.902156	1328.195527	512.731593	115.815010	1350.874629	547.468498	114.717427	1327.571191	563.036636	107.671546	1303.961899	528.094209	106.547392	1237.532023	596.338835	179.976073	1211.063350	562.435387	107.787156	1140.414612	698.021595	143.860932	1115.869403	676.001166	148.275257	1101.753698	699.725096	111.911436	1125.557131	720.685950	163.148110	1128.037988	823.983848	129.483357	1065.296030	791.201148	177.839079	1127.270405	889.164781	114.424768	1060.566953	889.176982	124.065327	1025.045905	859.197900	189.433082	1339.964339	-37.665213	152.250408	1334.399636	-19.153564	149.903723	1310.134512	-32.109834	186.499531	1315.274189	-51.606545	144.166028	1229.030006	-61.049549	193.417746	1196.549466	 -7.406902	160.577528	1170.647347	-172.890689	170.519130	1129.823398	-147.811280	179.374807	1117.284441	-171.211744	169.088198	1157.689545	-196.427231	241.789448	1147.762554	-288.589699	210.380624	1080.464124	-260.652025	290.525262	1139.082165	-351.633262	224.827706	1078.198664	-376.167047	228.479629	1037.623224	-349.514179	316.176881	1295.495473	277.981337	276.955262	1491.491325	279.301663	159.753650	1534.390652	443.282822	199.874682	1527.781909	 77.157018	139.106489	1554.440449	274.955428	 94.671953	1362.694901	271.958652	279.254359	1032.443507	415.832188	292.904332	1024.859915	145.602955	 99.922244	1066.789304	322.901867	104.280453	1072.266779	202.690642	205.861092	950.591342	464.230061	185.994540	779.238740	470.446172	228.621724	776.466112	475.188944	226.609595	746.057824	474.793002	183.872382	747.575776	470.631460	194.217767	521.968017	440.068451	230.369615	495.983217	349.474388	208.368894	923.307667	 88.898796	241.057952	783.945099	 84.343522	198.735452	779.777852	 85.975635	201.718339	748.637253	 85.628520	244.263136	752.486309	 83.794357	221.785172	512.016135	128.319321	240.833162	493.517971	224.671946	224.142512	447.624586	402.079429	105.681461	422.849685	441.809365	145.118938	413.509311	457.323668	137.532624	383.902893	458.480613	 97.797516	393.359819	443.333487	109.302456	126.716770	427.017650	146.686035	131.591833	347.401073	238.906812	441.837510	175.922462	157.897438	423.659721	110.641338	117.981212	430.751504	127.288453	111.444571	401.626926	125.698856	150.543361	394.304106	108.163703	116.769859	121.445778	143.970393	156.347312	124.402777	218.417372	276.164592	 57.397854	391.326947	215.762286	 51.438003	488.364765	 62.263745	 68.798792	357.660686	155.926305	 61.183447	460.651981	301.641734	 52.643143	164.198240	242.104140	 49.929976	 63.173598	 81.295844	 64.757380	209.158581	169.097713	 64.103629	 99.356492	219.688218	961.785092	366.925397	228.697937	956.779512	188.559528	224.193078	959.282302	277.742462	194.090347	1049.089877	271.756913	286.079345	1028.651711	280.717571	102.101349	1069.528042	262.796255	201.705446	510.294399	394.771420	209.243306	492.715126	176.495633	127.994245	129.154302	387.209362	136.558586	122.924277	181.193882	276.164592	  0.000000	391.326947	301.641734	  0.000000	164.198240	215.762286	  0.000000	488.364765	242.104140	  0.000000	 63.173598	 62.263745	  0.000000	357.660686	 81.295844	  0.000000	209.158581	245.963439	  0.000000	439.845856	271.872937	  0.000000	113.685919	127.994245	  0.000000	387.209362	136.558586	  0.000000	181.193882	159.753650	1465.390652	443.282822	199.874682	1458.781909	 77.157018	143.261733	1224.297687	579.387111	168.791887	1212.789736	-34.228225	146.315734	1096.667009	807.592498	226.085036	1114.113339	-274.620862
